<svg width="10" height="8" viewBox="0 0 10 8" fill="none" xmlns="http://www.w3.org/2000/svg">
<path d="M5 0.5C5.2127 0.501002 5.4225 0.546191 5.61416 0.632289C5.80583 0.718388 5.97456 0.843237 6.10812 0.997777L9.61577 4.96444C9.82073 5.20325 9.94971 5.491 9.98801 5.7949C10.0263 6.09881 9.97239 6.40664 9.83239 6.68333C9.71885 6.9238 9.53356 7.12868 9.29865 7.27349C9.06374 7.41831 8.78914 7.49694 8.50765 7.5L1.49235 7.5C1.21086 7.49694 0.936261 7.41831 0.701352 7.27349C0.466442 7.12868 0.281152 6.9238 0.167608 6.68333C0.0276078 6.40665 -0.0263158 6.09881 0.0119837 5.7949C0.0502842 5.491 0.179266 5.20325 0.38423 4.96445L3.89188 0.997778C4.02544 0.843237 4.19417 0.718388 4.38584 0.632289C4.5775 0.546191 4.7873 0.501002 5 0.5Z" fill="#A0A1A4"/>
</svg>
