<svg width="10" height="8" viewBox="0 0 10 8" fill="none" xmlns="http://www.w3.org/2000/svg">
<path d="M5 7.5C4.7873 7.499 4.5775 7.45381 4.38584 7.36771C4.19417 7.28161 4.02544 7.15676 3.89188 7.00222L0.384232 3.03556C0.179267 2.79675 0.0502851 2.509 0.0119851 2.2051C-0.0263148 1.90119 0.0276073 1.59336 0.167607 1.31667C0.281151 1.0762 0.466443 0.871322 0.701353 0.726506C0.936262 0.581691 1.21086 0.503059 1.49235 0.5H8.50765C8.78914 0.503059 9.06374 0.581691 9.29865 0.726506C9.53356 0.871322 9.71885 1.0762 9.83239 1.31667C9.97239 1.59336 10.0263 1.90119 9.98802 2.2051C9.94972 2.509 9.82073 2.79675 9.61577 3.03556L6.10812 7.00222C5.97456 7.15676 5.80583 7.28161 5.61416 7.36771C5.4225 7.45381 5.2127 7.499 5 7.5Z" fill="#181A1C"/>
</svg>
