<svg width="11" height="8" viewBox="0 0 11 8" fill="none" xmlns="http://www.w3.org/2000/svg">
<path d="M5.5 7.5C5.2873 7.499 5.0775 7.45381 4.88584 7.36771C4.69417 7.28161 4.52544 7.15676 4.39188 7.00222L0.884232 3.03556C0.679267 2.79675 0.550285 2.509 0.511985 2.2051C0.473685 1.90119 0.527607 1.59336 0.667607 1.31667C0.781151 1.0762 0.966443 0.871322 1.20135 0.726506C1.43626 0.581691 1.71086 0.503059 1.99235 0.5H9.00765C9.28914 0.503059 9.56374 0.581691 9.79865 0.726506C10.0336 0.871322 10.2188 1.0762 10.3324 1.31667C10.4724 1.59336 10.5263 1.90119 10.488 2.2051C10.4497 2.509 10.3207 2.79675 10.1158 3.03556L6.60812 7.00222C6.47456 7.15676 6.30583 7.28161 6.11416 7.36771C5.9225 7.45381 5.7127 7.499 5.5 7.5Z" fill="#A0A1A4"/>
</svg>
