<svg width="32" height="32" viewBox="0 0 32 32" fill="none" xmlns="http://www.w3.org/2000/svg">
<path d="M19.7891 12.124H20.0391V11.874V5.55825C20.0391 4.23633 19.5184 2.96814 18.5909 2.03277C17.6632 1.09732 16.4046 0.571411 15.0919 0.571411H5.69729C4.3845 0.571411 3.12592 1.09732 2.19829 2.03277C1.27073 2.96814 0.75 4.23633 0.75 5.55825V26.0846C0.75 27.4065 1.27073 28.6747 2.19829 29.6101C3.12592 30.5455 4.3845 31.0714 5.69729 31.0714H15.0919C16.4046 31.0714 17.6632 30.5455 18.5909 29.6101C19.5184 28.6747 20.0391 27.4065 20.0391 26.0846V19.7688V19.5188H19.7891H18.2234H17.9734V19.7688V26.0846C17.9734 26.8565 17.6693 27.5963 17.1287 28.1415C16.5881 28.6866 15.8554 28.9925 15.0919 28.9925H5.69729C4.93374 28.9925 4.20104 28.6866 3.66048 28.1415L3.48296 28.3175L3.66048 28.1415C3.11986 27.5963 2.81576 26.8565 2.81576 26.0846V5.55825C2.81576 4.78636 3.11986 4.0465 3.66048 3.50132C4.20104 2.95621 4.93374 2.65036 5.69729 2.65036H15.0919C15.8554 2.65036 16.5881 2.95621 17.1287 3.50132C17.6693 4.0465 17.9734 4.78636 17.9734 5.55825V11.874V12.124H18.2234H19.7891ZM10.3946 14.7819H10.1446V15.0319V16.6109V16.8609H10.3946H27.4094L22.7432 21.5664L22.5794 21.7316L22.7323 21.9068L23.7657 23.0911L23.9424 23.2935L24.1316 23.1027L31.1775 15.9974L31.3521 15.8214L31.1775 15.6454L24.1316 8.54011L23.9424 8.34932L23.7657 8.55177L22.7323 9.73598L22.5794 9.91123L22.7432 10.0764L27.4094 14.7819H10.3946Z" fill="#E83E80" stroke="#E83E80" stroke-width="0.5"/>
</svg>
