<?xml version="1.0" encoding="UTF-8"?>
<svg id="Calque_2" data-name="Calque 2" xmlns="http://www.w3.org/2000/svg" viewBox="0 0 627.9 157.87">
  <defs>
    <style>
      .cls-1 {
        fill: #fff;
      }

      .cls-2 {
        isolation: isolate;
      }
    </style>
  </defs>
  <g id="Foreground">
    <g id="Foreground-2" data-name="Foreground">
      <g class="cls-2">
        <path class="cls-1" d="M66.03,130.96v24.5H0v-24.5H15.38v-57.35H1.1v-24.5H15.38v-9.78c0-11.21,3.46-20.56,10.38-28.07C32.68,3.75,42.99,0,56.69,0c16.63,0,28.45,4.98,35.49,14.94l-24.61,19.23c-2.2-7.62-5.35-11.43-9.45-11.43-5.86,0-8.79,4.91-8.79,14.72v11.65h16.7v24.5h-16.7v57.35h16.7Z"/>
        <path class="cls-1" d="M98.86,155.46v-24.5h16.7V27.14h-16.7V2.64h50.65V130.96h15.27v24.5H98.86Z"/>
        <path class="cls-1" d="M266.01,157.87c-15.67,0-28.91-4.96-39.72-14.89-10.8-9.92-16.21-23.53-16.21-40.81s5.4-30.89,16.21-40.81c10.8-9.92,24.04-14.89,39.72-14.89s29,4.96,39.77,14.89c10.77,9.92,16.15,23.53,16.15,40.81s-5.33,30.62-15.99,40.65c-10.66,10.04-23.97,15.05-39.94,15.05Zm-.11-26.37c6.3,0,11.41-2.42,15.33-7.25,3.92-4.83,5.88-12.41,5.88-22.74,0-9.08-1.91-16.17-5.71-21.26-3.81-5.09-8.97-7.64-15.49-7.64-13.99,0-20.98,10.11-20.98,30.32,0,8.28,1.74,15.11,5.22,20.49,3.48,5.38,8.73,8.08,15.77,8.08Z"/>
        <path class="cls-1" d="M428.28,157l-27.91-83.39h-13.51v-24.5h57.9v24.5h-11.6l13.09,39.45,21.71-63.95h28.16l21.03,64.04,13.08-39.54h-11.97v-24.5h51.42v24.5h-13.29l-27.58,83.39h-29.44l-20.87-62.51-20.54,62.51h-29.66Z"/>
        <path class="cls-1" d="M591.21,80.09v-16.59c12.01-1.17,18.02-8.39,18.02-21.64v-2.09h-18.02V2.64h36.69V37.13c0,10.62-1.12,18.92-3.35,24.88-2.24,5.97-6.19,10.47-11.87,13.51-5.68,3.04-12.84,4.56-21.48,4.56Z"/>
      </g>
    </g>
  </g>
</svg>