<svg width="21" height="18" viewBox="0 0 21 18" fill="none" xmlns="http://www.w3.org/2000/svg">
<path d="M15.1875 0C13.2516 0 11.5566 0.832696 10.5 2.24022C9.44344 0.832696 7.74844 0 5.8125 0C4.27146 0.00173735 2.79404 0.614826 1.70436 1.70476C0.614681 2.7947 0.00173694 4.27247 0 5.81387C0 12.3779 9.73031 17.691 10.1447 17.9105C10.2539 17.9692 10.376 18 10.5 18C10.624 18 10.7461 17.9692 10.8553 17.9105C11.2697 17.691 21 12.3779 21 5.81387C20.9983 4.27247 20.3853 2.7947 19.2956 1.70476C18.206 0.614826 16.7285 0.00173735 15.1875 0ZM10.5 16.3914C8.78813 15.3936 1.5 10.8485 1.5 5.81387C1.50149 4.67031 1.95632 3.57402 2.76475 2.7654C3.57317 1.95678 4.66921 1.50184 5.8125 1.50035C7.63594 1.50035 9.16687 2.47183 9.80625 4.0322C9.86275 4.16979 9.95888 4.28747 10.0824 4.37029C10.2059 4.45312 10.3513 4.49734 10.5 4.49734C10.6487 4.49734 10.7941 4.45312 10.9176 4.37029C11.0411 4.28747 11.1372 4.16979 11.1937 4.0322C11.8331 2.46902 13.3641 1.50035 15.1875 1.50035C16.3308 1.50184 17.4268 1.95678 18.2353 2.7654C19.0437 3.57402 19.4985 4.67031 19.5 5.81387C19.5 10.841 12.21 15.3927 10.5 16.3914Z" fill="#A0A1A4"/>
</svg>
