<svg width="32" height="32" viewBox="0 0 32 32" fill="none" xmlns="http://www.w3.org/2000/svg">
<path d="M16 28.6964C12.5853 28.6964 9.31053 27.3399 6.896 24.9254C4.48147 22.5109 3.125 19.2361 3.125 15.8214C3.125 12.4067 4.48147 9.13194 6.896 6.71741C9.31053 4.30288 12.5853 2.94641 16 2.94641C19.4147 2.94641 22.6895 4.30288 25.104 6.71741C27.5185 9.13194 28.875 12.4067 28.875 15.8214C28.875 19.2361 27.5185 22.5109 25.104 24.9254C22.6895 27.3399 19.4147 28.6964 16 28.6964ZM16 31.0714C20.0445 31.0714 23.9234 29.4647 26.7834 26.6048C29.6433 23.7449 31.25 19.866 31.25 15.8214C31.25 11.7769 29.6433 7.89796 26.7834 5.03803C23.9234 2.1781 20.0445 0.571411 16 0.571411C11.9554 0.571411 8.07655 2.1781 5.21662 5.03803C2.35669 7.89796 0.75 11.7769 0.75 15.8214C0.75 19.866 2.35669 23.7449 5.21662 26.6048C8.07655 29.4647 11.9554 31.0714 16 31.0714Z" fill="#A0A1A4" stroke="#A0A1A4" stroke-width="0.5"/>
<path d="M14.1288 21.4464C14.1288 21.2002 14.1773 20.9563 14.2715 20.7289C14.3657 20.5014 14.5038 20.2947 14.678 20.1206C14.8521 19.9465 15.0588 19.8083 15.2863 19.7141C15.5137 19.6199 15.7576 19.5714 16.0038 19.5714C16.25 19.5714 16.4938 19.6199 16.7213 19.7141C16.9488 19.8083 17.1555 19.9465 17.3296 20.1206C17.5037 20.2947 17.6418 20.5014 17.7361 20.7289C17.8303 20.9563 17.8788 21.2002 17.8788 21.4464C17.8788 21.9437 17.6812 22.4206 17.3296 22.7722C16.978 23.1238 16.5011 23.3214 16.0038 23.3214C15.5065 23.3214 15.0296 23.1238 14.678 22.7722C14.3263 22.4206 14.1288 21.9437 14.1288 21.4464ZM14.3125 10.187C14.2876 9.95046 14.3126 9.71131 14.386 9.48506C14.4595 9.25882 14.5796 9.05054 14.7388 8.87374C14.8979 8.69694 15.0924 8.55556 15.3097 8.45879C15.527 8.36202 15.7622 8.31201 16 8.31201C16.2379 8.31201 16.4731 8.36202 16.6904 8.45879C16.9077 8.55556 17.1022 8.69694 17.2613 8.87374C17.4204 9.05054 17.5406 9.25882 17.614 9.48506C17.6875 9.71131 17.7125 9.95046 17.6875 10.187L17.0313 16.7626C17.0092 17.021 16.891 17.2616 16.7001 17.437C16.5091 17.6123 16.2593 17.7096 16 17.7096C15.7408 17.7096 15.491 17.6123 15.3 17.437C15.109 17.2616 14.9908 17.021 14.9688 16.7626L14.3125 10.187Z" fill="#A0A1A4"/>
</svg>
