<svg width="30" height="32" viewBox="0 0 30 32" fill="none" xmlns="http://www.w3.org/2000/svg">
<path fill-rule="evenodd" clip-rule="evenodd" d="M13 0.908286C13.577 0.480986 14.2788 0.25 15 0.25C15.7212 0.25 16.423 0.480986 17 0.908286L28.6667 9.54829C29.0807 9.85487 29.4167 10.2524 29.6481 10.7095C29.8795 11.1665 30 11.6705 30 12.1814V27.8157C30 28.6887 29.6488 29.5258 29.0237 30.1431C28.3986 30.7604 27.5507 31.1071 26.6667 31.1071H3.33333C2.44928 31.1071 1.60143 30.7604 0.976311 30.1431C0.351189 29.5258 0 28.6887 0 27.8157V12.1814C0 11.6705 0.120484 11.1665 0.351909 10.7095C0.583335 10.2524 0.919346 9.85487 1.33333 9.54829L13 0.908286ZM15 3.54143L3.33333 12.1814V27.8157H26.6667V12.1814L15 3.54143Z" fill="#A0A1A4"/>
</svg>
