<svg width="30" height="32" viewBox="0 0 30 32" fill="none" xmlns="http://www.w3.org/2000/svg">
<path fill-rule="evenodd" clip-rule="evenodd" d="M13 0.666667C13.577 0.233926 14.2788 0 15 0C15.7212 0 16.423 0.233926 17 0.666667L28.6667 9.41667C29.0807 9.72716 29.4167 10.1298 29.6481 10.5926C29.8795 11.0555 30 11.5658 30 12.0833V27.9167C30 28.8007 29.6488 29.6486 29.0237 30.2737C28.3986 30.8988 27.5507 31.25 26.6667 31.25H3.33333C2.44928 31.25 1.60143 30.8988 0.976311 30.2737C0.351189 29.6486 0 28.8007 0 27.9167V12.0833C0 11.5658 0.120484 11.0555 0.351909 10.5926C0.583335 10.1298 0.919346 9.72716 1.33333 9.41667L13 0.666667Z" fill="white"/>
</svg>
