<svg width="26" height="6" viewBox="0 0 26 6" fill="none" xmlns="http://www.w3.org/2000/svg">
<path d="M3.13496 0.222168C1.60718 0.222168 0.357178 1.47217 0.357178 2.99995C0.357178 4.52772 1.60718 5.77772 3.13496 5.77772C4.66273 5.77772 5.91273 4.52772 5.91273 2.99995C5.91273 1.47217 4.66273 0.222168 3.13496 0.222168ZM22.5794 0.222168C21.0516 0.222168 19.8016 1.47217 19.8016 2.99995C19.8016 4.52772 21.0516 5.77772 22.5794 5.77772C24.1072 5.77772 25.3572 4.52772 25.3572 2.99995C25.3572 1.47217 24.1072 0.222168 22.5794 0.222168ZM12.8572 0.222168C11.3294 0.222168 10.0794 1.47217 10.0794 2.99995C10.0794 4.52772 11.3294 5.77772 12.8572 5.77772C14.385 5.77772 15.635 4.52772 15.635 2.99995C15.635 1.47217 14.385 0.222168 12.8572 0.222168Z" fill="#A0A1A4"/>
</svg>
