<svg width="26" height="26" viewBox="0 0 26 26" fill="none" xmlns="http://www.w3.org/2000/svg">
<path d="M21.1903 8.83333C23.4915 8.83333 25.357 6.96785 25.357 4.66667C25.357 2.36548 23.4915 0.5 21.1903 0.5C18.8892 0.5 17.0237 2.36548 17.0237 4.66667C17.0237 6.96785 18.8892 8.83333 21.1903 8.83333Z" fill="#A0A1A4"/>
<path d="M21.1905 22.7222H3.13496V4.66669H14.2461C14.2461 3.6778 14.4586 2.7403 14.8322 1.88892H3.13496C1.60301 1.88892 0.357178 3.13475 0.357178 4.66669V22.7222C0.357178 24.2542 1.60301 25.5 3.13496 25.5H21.1905C22.7225 25.5 23.9683 24.2542 23.9683 22.7222V11.025C23.0931 11.4111 22.1471 11.6107 21.1905 11.6111V22.7222Z" fill="#A0A1A4"/>
</svg>
