<svg width="30" height="32" viewBox="0 0 30 32" fill="none" xmlns="http://www.w3.org/2000/svg">
<mask id="path-1-inside-1_171_413" fill="white">
<path d="M18.0475 0.107178C18.2803 0.107185 18.5071 0.183301 18.6951 0.324562C18.8832 0.465824 19.023 0.664941 19.0942 0.893239L20.3035 4.76465C20.8114 5.02063 21.2974 5.30832 21.7613 5.63226L25.6224 4.77597C25.8501 4.7259 26.0873 4.75156 26.2999 4.84927C26.5125 4.94697 26.6895 5.11167 26.8054 5.31965L29.8529 10.7541C29.9693 10.962 30.0186 11.2025 29.9937 11.4411C29.9688 11.6797 29.871 11.904 29.7144 12.0816L27.0648 15.0944C27.1034 15.6722 27.1034 16.2519 27.0648 16.8297L29.7144 19.8471C29.871 20.0247 29.9688 20.2489 29.9937 20.4875C30.0186 20.7261 29.9693 20.9667 29.8529 21.1745L26.8054 26.6113C26.6892 26.8188 26.512 26.9831 26.2994 27.0803C26.0869 27.1776 25.8498 27.2029 25.6224 27.1527L21.7613 26.2964C21.2996 26.6181 20.8114 26.908 20.3057 27.164L19.0942 31.0354C19.023 31.2637 18.8832 31.4628 18.6951 31.6041C18.5071 31.7453 18.2803 31.8215 18.0475 31.8215H11.9525C11.7197 31.8215 11.4929 31.7453 11.3049 31.6041C11.1168 31.4628 10.977 31.2637 10.9058 31.0354L9.69868 27.1663C9.19212 26.9111 8.70352 26.6196 8.23647 26.2941L4.37757 27.1527C4.14992 27.2027 3.91271 27.1771 3.70012 27.0794C3.48753 26.9817 3.31053 26.817 3.19461 26.609L0.147069 21.1745C0.0306957 20.9667 -0.0185963 20.7261 0.00630011 20.4875C0.0311965 20.2489 0.128995 20.0247 0.285593 19.8471L2.93515 16.8297C2.89677 16.2534 2.89677 15.6752 2.93515 15.099L0.285593 12.0816C0.128995 11.904 0.0311965 11.6797 0.00630011 11.4411C-0.0185963 11.2025 0.0306957 10.962 0.147069 10.7541L3.19461 5.31738C3.31085 5.10982 3.48799 4.94559 3.70055 4.8483C3.91312 4.75102 4.15015 4.72569 4.37757 4.77597L8.23647 5.63452C8.70262 5.31059 9.19076 5.01836 9.69868 4.76238L10.908 0.893239C10.979 0.665677 11.1181 0.467086 11.3053 0.325893C11.4925 0.1847 11.7182 0.108142 11.9503 0.107178H18.0453H18.0475ZM17.2428 2.37248H12.7572L11.5083 6.37528L10.6662 6.79889C10.2522 7.00761 9.85251 7.24527 9.47 7.5102L8.69163 8.05387L4.6986 7.16587L2.45581 11.1709L5.19333 14.2925L5.12736 15.253C5.09577 15.7267 5.09577 16.202 5.12736 16.6756L5.19333 17.6361L2.45142 20.7577L4.6964 24.7628L8.68943 23.877L9.46781 24.4184C9.85031 24.6834 10.25 24.921 10.664 25.1297L11.5061 25.5534L12.7572 29.5562H17.2472L18.5005 25.5511L19.3404 25.1297C19.754 24.9215 20.1529 24.6838 20.5344 24.4184L21.3106 23.877L25.3058 24.7628L27.5486 20.7577L24.8089 17.6361L24.8748 16.6756C24.9065 16.2012 24.9065 15.7251 24.8748 15.2507L24.8089 14.2903L27.5508 11.1709L25.3058 7.16587L21.3106 8.04934L20.5344 7.5102C20.153 7.24474 19.754 7.00705 19.3404 6.79889L18.5005 6.37754L17.245 2.37248H17.2428ZM15 9.1684C16.7495 9.1684 18.4273 9.8844 19.6644 11.1589C20.9014 12.4334 21.5964 14.1619 21.5964 15.9643C21.5964 17.7667 20.9014 19.4953 19.6644 20.7698C18.4273 22.0442 16.7495 22.7602 15 22.7602C13.2505 22.7602 11.5727 22.0442 10.3356 20.7698C9.09856 19.4953 8.40358 17.7667 8.40358 15.9643C8.40358 14.1619 9.09856 12.4334 10.3356 11.1589C11.5727 9.8844 13.2505 9.1684 15 9.1684ZM15 11.4337C13.8337 11.4337 12.7151 11.911 11.8904 12.7607C11.0657 13.6103 10.6024 14.7627 10.6024 15.9643C10.6024 17.1659 11.0657 18.3183 11.8904 19.1679C12.7151 20.0176 13.8337 20.4949 15 20.4949C16.1663 20.4949 17.2849 20.0176 18.1096 19.1679C18.9343 18.3183 19.3976 17.1659 19.3976 15.9643C19.3976 14.7627 18.9343 13.6103 18.1096 12.7607C17.2849 11.911 16.1663 11.4337 15 11.4337Z"/>
</mask>
<path d="M18.0475 0.107178C18.2803 0.107185 18.5071 0.183301 18.6951 0.324562C18.8832 0.465824 19.023 0.664941 19.0942 0.893239L20.3035 4.76465C20.8114 5.02063 21.2974 5.30832 21.7613 5.63226L25.6224 4.77597C25.8501 4.7259 26.0873 4.75156 26.2999 4.84927C26.5125 4.94697 26.6895 5.11167 26.8054 5.31965L29.8529 10.7541C29.9693 10.962 30.0186 11.2025 29.9937 11.4411C29.9688 11.6797 29.871 11.904 29.7144 12.0816L27.0648 15.0944C27.1034 15.6722 27.1034 16.2519 27.0648 16.8297L29.7144 19.8471C29.871 20.0247 29.9688 20.2489 29.9937 20.4875C30.0186 20.7261 29.9693 20.9667 29.8529 21.1745L26.8054 26.6113C26.6892 26.8188 26.512 26.9831 26.2994 27.0803C26.0869 27.1776 25.8498 27.2029 25.6224 27.1527L21.7613 26.2964C21.2996 26.6181 20.8114 26.908 20.3057 27.164L19.0942 31.0354C19.023 31.2637 18.8832 31.4628 18.6951 31.6041C18.5071 31.7453 18.2803 31.8215 18.0475 31.8215H11.9525C11.7197 31.8215 11.4929 31.7453 11.3049 31.6041C11.1168 31.4628 10.977 31.2637 10.9058 31.0354L9.69868 27.1663C9.19212 26.9111 8.70352 26.6196 8.23647 26.2941L4.37757 27.1527C4.14992 27.2027 3.91271 27.1771 3.70012 27.0794C3.48753 26.9817 3.31053 26.817 3.19461 26.609L0.147069 21.1745C0.0306957 20.9667 -0.0185963 20.7261 0.00630011 20.4875C0.0311965 20.2489 0.128995 20.0247 0.285593 19.8471L2.93515 16.8297C2.89677 16.2534 2.89677 15.6752 2.93515 15.099L0.285593 12.0816C0.128995 11.904 0.0311965 11.6797 0.00630011 11.4411C-0.0185963 11.2025 0.0306957 10.962 0.147069 10.7541L3.19461 5.31738C3.31085 5.10982 3.48799 4.94559 3.70055 4.8483C3.91312 4.75102 4.15015 4.72569 4.37757 4.77597L8.23647 5.63452C8.70262 5.31059 9.19076 5.01836 9.69868 4.76238L10.908 0.893239C10.979 0.665677 11.1181 0.467086 11.3053 0.325893C11.4925 0.1847 11.7182 0.108142 11.9503 0.107178H18.0453H18.0475ZM17.2428 2.37248H12.7572L11.5083 6.37528L10.6662 6.79889C10.2522 7.00761 9.85251 7.24527 9.47 7.5102L8.69163 8.05387L4.6986 7.16587L2.45581 11.1709L5.19333 14.2925L5.12736 15.253C5.09577 15.7267 5.09577 16.202 5.12736 16.6756L5.19333 17.6361L2.45142 20.7577L4.6964 24.7628L8.68943 23.877L9.46781 24.4184C9.85031 24.6834 10.25 24.921 10.664 25.1297L11.5061 25.5534L12.7572 29.5562H17.2472L18.5005 25.5511L19.3404 25.1297C19.754 24.9215 20.1529 24.6838 20.5344 24.4184L21.3106 23.877L25.3058 24.7628L27.5486 20.7577L24.8089 17.6361L24.8748 16.6756C24.9065 16.2012 24.9065 15.7251 24.8748 15.2507L24.8089 14.2903L27.5508 11.1709L25.3058 7.16587L21.3106 8.04934L20.5344 7.5102C20.153 7.24474 19.754 7.00705 19.3404 6.79889L18.5005 6.37754L17.245 2.37248H17.2428ZM15 9.1684C16.7495 9.1684 18.4273 9.8844 19.6644 11.1589C20.9014 12.4334 21.5964 14.1619 21.5964 15.9643C21.5964 17.7667 20.9014 19.4953 19.6644 20.7698C18.4273 22.0442 16.7495 22.7602 15 22.7602C13.2505 22.7602 11.5727 22.0442 10.3356 20.7698C9.09856 19.4953 8.40358 17.7667 8.40358 15.9643C8.40358 14.1619 9.09856 12.4334 10.3356 11.1589C11.5727 9.8844 13.2505 9.1684 15 9.1684ZM15 11.4337C13.8337 11.4337 12.7151 11.911 11.8904 12.7607C11.0657 13.6103 10.6024 14.7627 10.6024 15.9643C10.6024 17.1659 11.0657 18.3183 11.8904 19.1679C12.7151 20.0176 13.8337 20.4949 15 20.4949C16.1663 20.4949 17.2849 20.0176 18.1096 19.1679C18.9343 18.3183 19.3976 17.1659 19.3976 15.9643C19.3976 14.7627 18.9343 13.6103 18.1096 12.7607C17.2849 11.911 16.1663 11.4337 15 11.4337Z" fill="#A0A1A4" stroke="#A0A1A4" mask="url(#path-1-inside-1_171_413)"/>
</svg>
