<svg width="27" height="26" viewBox="0 0 27 26" fill="none" xmlns="http://www.w3.org/2000/svg">
<path d="M26.2419 23.6802L26.2418 23.6802L20.2251 17.8317C21.9586 15.7178 22.8188 13.0457 22.6288 10.3406C22.4334 7.55814 21.1422 4.95761 19.0262 3.07935C16.9104 1.20129 14.1327 0.189565 11.271 0.252795C8.40933 0.316025 5.68155 1.44941 3.6555 3.41918C1.62924 5.38915 0.460881 8.04422 0.395702 10.8325C0.330524 13.6208 1.37363 16.3249 3.30594 18.3825C5.23805 20.4399 7.91023 21.6927 10.766 21.8822C13.5471 22.0668 16.296 21.2295 18.4708 19.5394L24.4954 25.3978L24.4954 25.3978C24.6107 25.5099 24.7472 25.5984 24.8969 25.6587C25.0467 25.719 25.2069 25.75 25.3686 25.75C25.5303 25.75 25.6905 25.719 25.8403 25.6587C25.99 25.5984 26.1265 25.5099 26.2419 25.3978C26.3572 25.2856 26.449 25.1522 26.5119 25.0047C26.5747 24.8573 26.6071 24.699 26.6071 24.539C26.6071 24.3789 26.5747 24.2207 26.5119 24.0732C26.449 23.9258 26.3572 23.7923 26.2419 23.6802ZM2.896 11.0919C2.89601 9.43328 3.40189 7.81128 4.35051 6.43099C5.29921 5.0506 6.64839 3.97367 8.22823 3.33746C9.80812 2.70122 11.547 2.53465 13.2246 2.85909C14.9022 3.18352 16.4423 3.98415 17.6504 5.15869C18.8584 6.33316 19.6803 7.82865 20.0131 9.45566C20.346 11.0826 20.1752 12.7691 19.5221 14.3021C18.8689 15.8352 17.7623 17.1467 16.3411 18.07C14.9199 18.9932 13.2483 19.4864 11.5377 19.4865C9.24434 19.484 7.04699 18.5971 5.4274 17.0225C3.80811 15.4482 2.89859 13.3152 2.896 11.0919Z" fill="#A0A1A4" stroke="#A0A1A4" stroke-width="0.5"/>
</svg>
