<svg width="23" height="18" viewBox="0 0 23 18" fill="none" xmlns="http://www.w3.org/2000/svg">
<path d="M22.7601 8.05543L14.5457 0.229524C14.4308 0.120011 14.2845 0.0453976 14.1252 0.0151191C13.9658 -0.0151595 13.8007 0.000257113 13.6505 0.059419C13.5004 0.118581 13.372 0.218831 13.2817 0.34749C13.1914 0.47615 13.1431 0.62744 13.143 0.782228V4.72942C10.4795 4.94659 7.53772 6.18895 5.11754 8.14445C2.20346 10.5 0.389097 13.5355 0.00815202 16.6913C-0.0216174 16.9367 0.0305995 17.1847 0.157371 17.4001C0.284143 17.6156 0.479011 17.7874 0.714242 17.8913C0.949473 17.9951 1.21308 18.0256 1.46755 17.9784C1.72202 17.9312 1.95439 17.8088 2.13159 17.6285C3.26107 16.483 7.27999 12.8605 13.143 12.5416V16.434C13.1431 16.5888 13.1914 16.7401 13.2817 16.8688C13.372 16.9974 13.5004 17.0977 13.6505 17.1568C13.8007 17.216 13.9658 17.2314 14.1252 17.2011C14.2845 17.1709 14.4308 17.0963 14.5457 16.9867L22.7601 9.16084C22.9137 9.01413 23 8.81536 23 8.60813C23 8.40091 22.9137 8.20214 22.7601 8.05543ZM14.7859 14.5451V11.7385C14.7859 11.5309 14.6994 11.3319 14.5453 11.1851C14.3913 11.0384 14.1824 10.9559 13.9645 10.9559C11.0812 10.9559 8.27291 11.673 5.61759 13.0885C4.26523 13.8126 3.0052 14.6831 1.86256 15.6828C2.45811 13.3506 3.9593 11.133 6.18028 9.3379C8.56452 7.41175 11.4745 6.26036 13.9645 6.26036C14.1824 6.26036 14.3913 6.17791 14.5453 6.03115C14.6994 5.88438 14.7859 5.68533 14.7859 5.47777V2.67218L21.0176 8.60813L14.7859 14.5451Z" fill="#A0A1A4"/>
</svg>
